<svg xmlns="http://www.w3.org/2000/svg" width="32" height="32" viewBox="0 0 32 32">
  <defs>
    <linearGradient id="grad1" x1="0%" y1="0%" x2="100%" y2="100%">
      <stop offset="0%" style="stop-color:#10b981;stop-opacity:1" />
      <stop offset="100%" style="stop-color:#059669;stop-opacity:1" />
    </linearGradient>
  </defs>
  <rect width="32" height="32" rx="6" fill="url(#grad1)"/>
  <g fill="white">
    <!-- Dollar sign -->
    <path d="M16 4 L16 6 M16 26 L16 28 M12 8 L20 8 C21.1 8 22 8.9 22 10 C22 11.1 21.1 12 20 12 L12 12 M12 20 L20 20 C21.1 20 22 20.9 22 22 C22 23.1 21.1 24 20 24 L12 24 M12 12 L12 20" stroke="white" stroke-width="2" fill="none" stroke-linecap="round"/>
    <!-- Chart bars -->
    <rect x="6" y="18" width="2" height="6" fill="white" opacity="0.7"/>
    <rect x="9" y="15" width="2" height="9" fill="white" opacity="0.7"/>
    <rect x="24" y="12" width="2" height="12" fill="white" opacity="0.7"/>
    <rect x="27" y="9" width="2" height="15" fill="white" opacity="0.7"/>
  </g>
</svg>
